<?xml version="1.0" standalone="no"?>
<svg xmlns:xlink="http://www.w3.org/1999/xlink" id="wave" style="transform:rotate(0deg); transition: 0.3s" viewBox="0 0 1440 460" version="1.1" xmlns="http://www.w3.org/2000/svg"><defs><linearGradient id="sw-gradient-0" x1="0" x2="0" y1="1" y2="0"><stop stop-color="rgba(0, 173, 181, 1)" offset="0%"/><stop stop-color="rgba(0, 244, 255, 1)" offset="100%"/></linearGradient></defs><path style="transform:translate(0, 0px); opacity:1" fill="url(#sw-gradient-0)" d="M0,184L34.3,199.3C68.6,215,137,245,206,245.3C274.3,245,343,215,411,222.3C480,230,549,276,617,276C685.7,276,754,230,823,214.7C891.4,199,960,215,1029,222.3C1097.1,230,1166,230,1234,191.7C1302.9,153,1371,77,1440,61.3C1508.6,46,1577,92,1646,145.7C1714.3,199,1783,261,1851,268.3C1920,276,1989,230,2057,237.7C2125.7,245,2194,307,2263,291.3C2331.4,276,2400,184,2469,168.7C2537.1,153,2606,215,2674,222.3C2742.9,230,2811,184,2880,199.3C2948.6,215,3017,291,3086,276C3154.3,261,3223,153,3291,153.3C3360,153,3429,261,3497,283.7C3565.7,307,3634,245,3703,253C3771.4,261,3840,337,3909,314.3C3977.1,291,4046,169,4114,161C4182.9,153,4251,261,4320,322C4388.6,383,4457,399,4526,337.3C4594.3,276,4663,138,4731,76.7C4800,15,4869,31,4903,38.3L4937.1,46L4937.1,460L4902.9,460C4868.6,460,4800,460,4731,460C4662.9,460,4594,460,4526,460C4457.1,460,4389,460,4320,460C4251.4,460,4183,460,4114,460C4045.7,460,3977,460,3909,460C3840,460,3771,460,3703,460C3634.3,460,3566,460,3497,460C3428.6,460,3360,460,3291,460C3222.9,460,3154,460,3086,460C3017.1,460,2949,460,2880,460C2811.4,460,2743,460,2674,460C2605.7,460,2537,460,2469,460C2400,460,2331,460,2263,460C2194.3,460,2126,460,2057,460C1988.6,460,1920,460,1851,460C1782.9,460,1714,460,1646,460C1577.1,460,1509,460,1440,460C1371.4,460,1303,460,1234,460C1165.7,460,1097,460,1029,460C960,460,891,460,823,460C754.3,460,686,460,617,460C548.6,460,480,460,411,460C342.9,460,274,460,206,460C137.1,460,69,460,34,460L0,460Z"/><defs><linearGradient id="sw-gradient-1" x1="0" x2="0" y1="1" y2="0"><stop stop-color="rgba(0, 173, 181, 1)" offset="0%"/><stop stop-color="rgba(0, 244, 255, 1)" offset="100%"/></linearGradient></defs><path style="transform:translate(0, 50px); opacity:0.9" fill="url(#sw-gradient-1)" d="M0,230L34.3,191.7C68.6,153,137,77,206,92C274.3,107,343,215,411,260.7C480,307,549,291,617,299C685.7,307,754,337,823,314.3C891.4,291,960,215,1029,176.3C1097.1,138,1166,138,1234,161C1302.9,184,1371,230,1440,237.7C1508.6,245,1577,215,1646,191.7C1714.3,169,1783,153,1851,161C1920,169,1989,199,2057,230C2125.7,261,2194,291,2263,291.3C2331.4,291,2400,261,2469,207C2537.1,153,2606,77,2674,107.3C2742.9,138,2811,276,2880,322C2948.6,368,3017,322,3086,268.3C3154.3,215,3223,153,3291,115C3360,77,3429,61,3497,107.3C3565.7,153,3634,261,3703,291.3C3771.4,322,3840,276,3909,260.7C3977.1,245,4046,261,4114,283.7C4182.9,307,4251,337,4320,299C4388.6,261,4457,153,4526,99.7C4594.3,46,4663,46,4731,84.3C4800,123,4869,199,4903,237.7L4937.1,276L4937.1,460L4902.9,460C4868.6,460,4800,460,4731,460C4662.9,460,4594,460,4526,460C4457.1,460,4389,460,4320,460C4251.4,460,4183,460,4114,460C4045.7,460,3977,460,3909,460C3840,460,3771,460,3703,460C3634.3,460,3566,460,3497,460C3428.6,460,3360,460,3291,460C3222.9,460,3154,460,3086,460C3017.1,460,2949,460,2880,460C2811.4,460,2743,460,2674,460C2605.7,460,2537,460,2469,460C2400,460,2331,460,2263,460C2194.3,460,2126,460,2057,460C1988.6,460,1920,460,1851,460C1782.9,460,1714,460,1646,460C1577.1,460,1509,460,1440,460C1371.4,460,1303,460,1234,460C1165.7,460,1097,460,1029,460C960,460,891,460,823,460C754.3,460,686,460,617,460C548.6,460,480,460,411,460C342.9,460,274,460,206,460C137.1,460,69,460,34,460L0,460Z"/><defs><linearGradient id="sw-gradient-2" x1="0" x2="0" y1="1" y2="0"><stop stop-color="rgba(0, 173, 181, 1)" offset="0%"/><stop stop-color="rgba(0, 244, 255, 1)" offset="100%"/></linearGradient></defs><path style="transform:translate(0, 100px); opacity:0.8" fill="url(#sw-gradient-2)" d="M0,184L34.3,153.3C68.6,123,137,61,206,46C274.3,31,343,61,411,122.7C480,184,549,276,617,306.7C685.7,337,754,307,823,276C891.4,245,960,215,1029,214.7C1097.1,215,1166,245,1234,276C1302.9,307,1371,337,1440,329.7C1508.6,322,1577,276,1646,222.3C1714.3,169,1783,107,1851,138C1920,169,1989,291,2057,299C2125.7,307,2194,199,2263,168.7C2331.4,138,2400,184,2469,168.7C2537.1,153,2606,77,2674,84.3C2742.9,92,2811,184,2880,245.3C2948.6,307,3017,337,3086,352.7C3154.3,368,3223,368,3291,314.3C3360,261,3429,153,3497,130.3C3565.7,107,3634,169,3703,214.7C3771.4,261,3840,291,3909,253C3977.1,215,4046,107,4114,69C4182.9,31,4251,61,4320,69C4388.6,77,4457,61,4526,69C4594.3,77,4663,107,4731,122.7C4800,138,4869,138,4903,138L4937.1,138L4937.1,460L4902.9,460C4868.6,460,4800,460,4731,460C4662.9,460,4594,460,4526,460C4457.1,460,4389,460,4320,460C4251.4,460,4183,460,4114,460C4045.7,460,3977,460,3909,460C3840,460,3771,460,3703,460C3634.3,460,3566,460,3497,460C3428.6,460,3360,460,3291,460C3222.9,460,3154,460,3086,460C3017.1,460,2949,460,2880,460C2811.4,460,2743,460,2674,460C2605.7,460,2537,460,2469,460C2400,460,2331,460,2263,460C2194.3,460,2126,460,2057,460C1988.6,460,1920,460,1851,460C1782.9,460,1714,460,1646,460C1577.1,460,1509,460,1440,460C1371.4,460,1303,460,1234,460C1165.7,460,1097,460,1029,460C960,460,891,460,823,460C754.3,460,686,460,617,460C548.6,460,480,460,411,460C342.9,460,274,460,206,460C137.1,460,69,460,34,460L0,460Z"/><defs><linearGradient id="sw-gradient-3" x1="0" x2="0" y1="1" y2="0"><stop stop-color="rgba(0, 173, 181, 1)" offset="0%"/><stop stop-color="rgba(0, 244, 255, 1)" offset="100%"/></linearGradient></defs><path style="transform:translate(0, 150px); opacity:0.7" fill="url(#sw-gradient-3)" d="M0,138L34.3,176.3C68.6,215,137,291,206,337.3C274.3,383,343,399,411,375.7C480,353,549,291,617,291.3C685.7,291,754,353,823,337.3C891.4,322,960,230,1029,199.3C1097.1,169,1166,199,1234,237.7C1302.9,276,1371,322,1440,322C1508.6,322,1577,276,1646,214.7C1714.3,153,1783,77,1851,69C1920,61,1989,123,2057,184C2125.7,245,2194,307,2263,291.3C2331.4,276,2400,184,2469,138C2537.1,92,2606,92,2674,122.7C2742.9,153,2811,215,2880,260.7C2948.6,307,3017,337,3086,337.3C3154.3,337,3223,307,3291,268.3C3360,230,3429,184,3497,138C3565.7,92,3634,46,3703,30.7C3771.4,15,3840,31,3909,46C3977.1,61,4046,77,4114,69C4182.9,61,4251,31,4320,69C4388.6,107,4457,215,4526,222.3C4594.3,230,4663,138,4731,130.3C4800,123,4869,199,4903,237.7L4937.1,276L4937.1,460L4902.9,460C4868.6,460,4800,460,4731,460C4662.9,460,4594,460,4526,460C4457.1,460,4389,460,4320,460C4251.4,460,4183,460,4114,460C4045.7,460,3977,460,3909,460C3840,460,3771,460,3703,460C3634.3,460,3566,460,3497,460C3428.6,460,3360,460,3291,460C3222.9,460,3154,460,3086,460C3017.1,460,2949,460,2880,460C2811.4,460,2743,460,2674,460C2605.7,460,2537,460,2469,460C2400,460,2331,460,2263,460C2194.3,460,2126,460,2057,460C1988.6,460,1920,460,1851,460C1782.9,460,1714,460,1646,460C1577.1,460,1509,460,1440,460C1371.4,460,1303,460,1234,460C1165.7,460,1097,460,1029,460C960,460,891,460,823,460C754.3,460,686,460,617,460C548.6,460,480,460,411,460C342.9,460,274,460,206,460C137.1,460,69,460,34,460L0,460Z"/></svg>